<svg version="1.1" xmlns="http://www.w3.org/2000/svg" style="display: block;" viewBox="0 0 2048 2048" width="1384" height="1384" preserveAspectRatio="none">
<defs>
	<linearGradient id="Gradient1" gradientUnits="userSpaceOnUse" x1="663.034" y1="1794.28" x2="686.964" y2="1793.64">
		<stop class="stop0" offset="0" stop-opacity="0.607843" stop-color="rgb(125,124,124)"/>
		<stop class="stop1" offset="1" stop-opacity="0.717647" stop-color="rgb(169,168,169)"/>
	</linearGradient>
</defs>
<path transform="translate(0,0)" fill="rgb(0,0,0)" d="M 146.176 1974.3 C 85.285 1935.99 32.0507 1858.13 16.445 1787.91 C 6.31491 1742.32 9.1337 1693.65 9.15774 1646.91 L 9.17784 1486.71 L 10.1088 844.981 L 9.95798 490.5 L 9.88515 373.969 C 9.73255 346.084 8.29608 317.15 11.0194 289.271 C 15.9594 242.184 31.9096 196.919 57.5806 157.136 C 102.412 87.1069 172.501 36.1575 253.992 17.4255 C 295.417 7.9032 340.895 10.1615 383.709 10.1854 L 523.128 10.4824 L 1031.95 10.3486 L 1505.76 10.4069 L 1645.64 10.4248 C 1675.66 10.2602 1720.66 8.97128 1749.99 11.9543 C 1798.85 17.1424 1845.78 33.8995 1886.88 60.8371 C 1953.77 103.893 2007.46 177.69 2024.08 255.722 C 2032.65 295.968 2030.12 348.327 2030.06 390.423 L 2030.08 546.486 L 2030.1 1116.29 L 2030.06 1560.85 L 2030.17 1676.84 C 2030.28 1700.03 2031.22 1728.92 2029.06 1751.5 C 2024.14 1802.81 2005.71 1848.32 1976.94 1890.97 C 1955.54 1922.7 1924.39 1953.94 1892.83 1976 C 1890.32 1977.75 1882.47 1983.06 1880.09 1983.6 C 1872.67 1983.34 1850.86 1997.72 1842.34 2001.09 C 1824.12 2008.28 1806.61 2014.85 1787.32 2019.18 C 1778.16 2021.23 1769.51 2022.94 1759.91 2023.32 C 1759.91 2023.32 1756.23 2025.8 1756.23 2025.8 C 1743.42 2026.45 1726.4 2025.75 1714.17 2025.71 L 1636.51 2025.73 L 1507.45 2026.11 C 1499.28 2026.17 1491.21 2026.77 1483 2027.05 C 1473.43 2027.62 1463.47 2025.83 1454 2025.96 C 1423.42 2026.36 1392.55 2025.07 1362 2026.47 L 1364.5 2026.75 C 1327.92 2025.25 1291.57 2026.34 1254.97 2025.85 C 1238.88 2025.63 1222.62 2025.41 1206.56 2026.4 L 1207 2026.54 C 1164.48 2024.6 1116.02 2026 1073.1 2026 C 1059.82 2026.12 1046.54 2026.13 1033.26 2026.03 C 1023.17 2025.87 1006.2 2025.1 996.357 2026.07 L 999.454 2027.17 C 979.535 2025.78 963.459 2025.09 943.388 2026.54 C 935.272 2027.13 920.695 2026.04 911.847 2025.99 L 845.926 2025.95 C 782.959 2025.77 717.712 2027.08 655.183 2026.29 L 559.709 2025.8 C 539.558 2025.73 515.211 2025.04 495.497 2026.41 L 497.005 2026.68 C 486.551 2027.93 471.17 2025.33 460.125 2025.85 C 427.597 2027.36 394.988 2024.13 362.502 2026.5 L 362.994 2026.65 C 332.45 2026.54 286.917 2026.81 258.113 2021.28 C 234.35 2014.8 210.915 2005.39 188.152 1996.13 C 175.72 1991.07 158.185 1975.71 146.176 1974.3 z M 294.912 537.98 C 253.428 593.038 207.149 694.801 188.578 761.272 C 186.121 766.045 185.275 769.226 183.729 774.282 L 182.383 779.465 C 152.907 890.17 139.033 1010.55 155.574 1125.15 C 157.194 1136.38 155.705 1148.94 161.03 1157.99 C 164.736 1163.72 168.15 1171.16 162.607 1176.94 C 171.576 1231.25 186.361 1284.43 206.707 1335.57 C 267.416 1492.81 373.18 1628.64 510.746 1726.03 C 590.949 1783.6 680.538 1826.81 775.523 1853.74 C 781.711 1855.47 802.039 1861.54 807.367 1861.45 C 824.851 1867.87 859.618 1873.25 878.22 1876.29 C 995.089 1895.35 1114.6 1890.8 1229.68 1862.91 C 1242.93 1859.8 1288.17 1847.99 1297.63 1842.86 L 1298.13 1843.4 C 1304 1843.02 1336.79 1830.12 1345 1826.92 C 1451.74 1785.08 1549.12 1722.49 1631.53 1642.78 C 1799.21 1480.84 1888.01 1266.28 1892.03 1033.97 C 1897.48 802.262 1808.86 578.224 1646.39 412.932 C 1644.86 411.57 1641.19 409.285 1639.31 408.042 C 1630.16 392.465 1567.61 341.284 1552.79 329.805 C 1370.1 190.423 1139.76 128.821 911.886 158.402 C 817.064 169.794 724.763 196.717 638.686 238.09 C 632.949 240.788 606.435 253.057 603.642 256.672 C 595.962 257.49 571.367 273.498 563.816 278.228 C 477.912 331.625 401.505 398.96 337.732 477.469 C 324.435 493.964 305.931 518.536 294.74 536.466 L 294.912 537.98 z"/>
<path transform="translate(0,0)" fill="rgb(0,0,0)" d="M 603.097 286.978 C 628.712 273.89 650.581 261.234 677.466 249.845 C 874.008 166.985 1093.9 158.056 1296.51 224.707 C 1367.75 247.644 1435.53 280.18 1497.98 321.417 C 1506.81 327.186 1526.46 339.474 1531.17 347.68 L 1531.23 349.443 C 1525.83 349.44 1516.27 341.07 1509.38 338.163 C 1499.38 333.942 1493.3 333.098 1482.3 329.356 C 1460.09 321.866 1437.01 309.978 1413 311.638 C 1411.67 311.73 1408.51 314.92 1407.58 315.774 C 1402.14 320.785 1400.52 323.469 1397.97 330.328 C 1403.99 344.486 1410.73 357.931 1413.13 373.523 C 1414.73 383.941 1404.05 400.158 1405.08 404.689 C 1407.57 415.729 1431.71 439.514 1443.25 443.979 C 1447.44 445.599 1447.93 445.023 1450.32 444.351 C 1455.24 442.963 1459.62 428.722 1463.41 431.026 C 1470.7 435.454 1494.45 456.575 1499.31 462.344 C 1500.74 458.069 1500.92 456.933 1500.43 452.453 L 1501.78 451.455 C 1500.4 451.013 1500.76 451.419 1500.3 450.729 C 1509.86 452.985 1506.76 448.726 1514.24 455.845 C 1512.88 446.349 1504.79 444.282 1505.81 433.953 C 1505.91 432.925 1505.59 426.803 1505.1 426.335 C 1496.2 417.906 1481.8 411.05 1474.76 400.255 C 1470.83 394.218 1470.2 382.804 1468.51 375.578 C 1466.81 368.266 1460.32 362.691 1461.8 356.587 C 1469.48 351.741 1486.75 364.879 1487.69 371.285 C 1490.82 392.76 1509.3 415.752 1533.4 408.618 C 1538.17 407.206 1545.93 406.633 1551.32 408.059 C 1554.74 407.145 1559.4 406.435 1562.98 405.773 C 1567.74 408.748 1574.19 441.49 1593.82 440.64 C 1591.5 437.986 1589.55 437.036 1588.55 433.575 C 1586.82 427.588 1580.45 427.478 1577.17 421.923 L 1577.57 420.907 C 1583.94 421.061 1584.51 421.595 1589.79 417.557 C 1592.08 415.808 1595.49 414.6 1597.96 416.77 L 1597.6 416.687 C 1600.5 417.556 1608.99 416.883 1608.64 416.676 C 1614.87 420.338 1622.1 424.786 1628.19 428.709 C 1633.82 432.339 1633.82 433.905 1640.4 432.296 C 1643.52 434.663 1642.39 433.896 1643.52 439.022 C 1645.66 438.687 1644.73 439.119 1646.34 437.775 C 1647.16 429.905 1639.72 423.234 1642.68 415.403 L 1646.39 412.932 C 1808.86 578.224 1897.48 802.262 1892.03 1033.97 C 1888.01 1266.28 1799.21 1480.84 1631.53 1642.78 C 1549.12 1722.49 1451.74 1785.08 1345 1826.92 C 1336.79 1830.12 1304 1843.02 1298.13 1843.4 L 1297.63 1842.86 C 1290.8 1828.82 1311.73 1820.93 1322.26 1818.28 L 1327.75 1816.62 C 1336.3 1814.5 1340.09 1812.32 1348.05 1808.43 C 1350.6 1807.35 1358.71 1802.55 1361.52 1800.97 C 1367.86 1798.28 1372.71 1796.1 1378.82 1792.95 C 1370.98 1794.42 1365.24 1795.62 1358.22 1799.51 C 1352.8 1802.15 1350.6 1803.72 1344.52 1804.08 C 1339.91 1802.62 1334.07 1799.47 1329.85 1800.36 C 1323.21 1801.43 1310.73 1801.26 1307.2 1803.93 L 1304.69 1800.26 L 1296.22 1802.69 C 1291.25 1801.38 1264.29 1810.21 1257.65 1812.14 C 1239.65 1817.56 1221.46 1822.29 1203.1 1826.33 C 1176.31 1832.27 1152.32 1836.08 1125.24 1839.92 C 1119.8 1840.69 1111.76 1840.79 1107.52 1841.63 L 1106.88 1843.59 C 1101.41 1843.46 1091.72 1843.03 1086.5 1843.73 C 1052.8 1848.27 1018.95 1844.37 985.138 1847.16 C 980.079 1847.58 974.484 1844.54 969.443 1844.28 C 955.011 1843.87 941.94 1843.48 927.532 1842.27 L 929.487 1841.94 C 916.111 1840.17 902.971 1838.86 889.541 1837.55 C 883.517 1836.96 872.417 1831.91 868.642 1833.42 L 867.305 1835.22 L 864.964 1835.12 L 864.664 1834.29 L 865.859 1833.52 C 863.426 1831.25 861.377 1831.01 858.04 1829.81 L 856.077 1830.47 C 856.291 1831.36 856.505 1832.25 856.719 1833.14 C 847.182 1832.73 853.587 1824.83 837.376 1829.05 C 834.499 1825.98 839.443 1827.38 834.104 1825.43 L 832.519 1826 L 833.698 1828.34 L 833.232 1829.53 C 825.54 1828.63 811.699 1824.43 803.85 1822.18 L 796.477 1819.92 C 794.911 1822.13 795.436 1821.49 793.33 1823.23 C 784.308 1825.63 770.082 1822.84 761.522 1819.48 L 753.962 1816.23 C 733.503 1810.57 713.319 1803.97 693.478 1796.43 C 670.162 1781.72 670.348 1789.51 645.126 1782.39 C 643.872 1782.04 644.069 1782.21 642.577 1782.52 C 644.089 1789.34 675.739 1799.34 682.869 1804.72 C 687.992 1808.04 692.475 1810.86 697.776 1813.9 C 715.047 1824.02 717.697 1823.34 735.207 1829.43 L 743.86 1831.26 L 758.636 1830.92 C 772.533 1829.93 771.215 1835.63 778.303 1845.25 C 777.15 1848.32 776.129 1850.51 775.523 1853.74 C 680.538 1826.81 590.949 1783.6 510.746 1726.03 C 373.18 1628.64 267.416 1492.81 206.707 1335.57 C 186.361 1284.43 171.576 1231.25 162.607 1176.94 C 168.15 1171.16 164.736 1163.72 161.03 1157.99 C 155.705 1148.94 157.194 1136.38 155.574 1125.15 C 139.033 1010.55 152.907 890.17 182.383 779.465 L 183.907 778.783 C 191.485 779.825 190.914 788.287 191.537 794.346 L 193.514 786.36 C 195.149 788.099 195.806 793.276 196.435 796.094 C 195.967 782.57 195.003 783.465 201.73 772.491 L 215.214 772.415 L 215.913 771.063 C 217.678 762.673 221.472 754.015 222.561 745.895 C 225.637 736.828 227.446 728.12 230.883 718.549 C 226.843 720.333 226.02 721.047 222.2 720.348 C 219.007 718.016 217.516 713.328 215.827 709.55 C 217.252 705.764 219.668 701.22 221.501 697.516 L 218.008 687.753 C 221.287 680.148 231.162 657.912 235.314 651.878 L 235.646 653.033 C 234.358 655.612 227.302 672.992 227.483 675.464 C 228.681 674.409 255.061 621.135 257.689 614.815 C 259.938 609.405 269.29 605.103 271.902 595.878 C 274.724 585.912 279.183 576.575 281.803 566.107 C 283.541 559.164 294.271 545.222 294.912 537.98 L 294.74 536.466 C 305.931 518.536 324.435 493.964 337.732 477.469 C 401.505 398.96 477.912 331.625 563.816 278.228 C 571.367 273.498 595.962 257.49 603.642 256.672 C 604.525 261.787 603.595 279.993 601.488 284.985 C 602.655 286.756 602.017 286.188 603.097 286.978 z M 380.771 1070.9 L 382.253 1070.95 C 397.524 1071.42 406.464 1064.1 416.677 1074.67 C 424.12 1082.38 429.773 1091.77 438.098 1097.96 C 451.773 1108.13 466.292 1108.12 479.665 1118.82 C 493.144 1129.61 489.927 1144.71 498.643 1154.28 C 514.235 1171.39 542.418 1183.54 557.471 1197.11 C 562.432 1182.8 572.578 1169.31 585.801 1185.85 C 587.849 1177.73 594.05 1179.14 601.243 1178.9 C 582.444 1157.72 574.67 1165.69 551.731 1169.92 C 540.16 1164.54 538.24 1162.97 529.35 1153.01 C 509.031 1130.19 551.681 1082.45 514.039 1074.14 C 503.978 1071.92 474.092 1077.69 470.081 1071.99 C 471.166 1064.75 475.586 1058.44 477.411 1051.74 C 482.548 1032.88 490.935 1016.45 498.256 998.585 C 497.847 994.96 498.586 996.49 495.801 993.92 C 489.302 991.871 478.412 992.391 471.868 994.089 C 456.413 998.1 455.406 1008.82 448.316 1020.54 C 441.119 1032.44 430.388 1033.72 417.995 1036.5 C 408.676 1032.89 403.941 1030.84 397.451 1022.72 C 395.092 1019.77 394.716 1018.36 391.549 1016.05 C 385.489 1023.44 375.213 1038.19 375.75 1048.15 C 376.235 1057.16 381.475 1062.52 380.771 1070.9 z M 573.979 949.473 C 579.379 945.761 583.145 944.024 585.201 937.687 C 581.854 940.976 581.304 942.355 576.511 941.99 C 568.006 933.235 581.78 905.685 558.644 890.195 C 558.65 911.752 562.094 930.884 573.979 949.473 z M 1486.78 468.809 C 1482.88 463.427 1475.02 448.386 1468.14 451.727 C 1463.35 459.161 1468 466.065 1473.62 471.213 C 1473.41 468.066 1473.17 468.981 1473.95 466.097 L 1476.67 465.077 C 1481.12 465.773 1482.64 466.802 1486.78 468.809 z M 832.478 346.94 C 839.348 355.62 850.859 364.344 839.432 373.117 L 838.101 372.344 C 829.924 376.819 837.499 381.525 823.554 385.317 C 816.124 387.338 814.513 389.027 805.553 389.666 C 811.773 391.902 820.463 394.148 826.824 396.775 C 827.554 397.076 833.426 395.152 836.088 395.894 C 837.694 396.352 839.065 397.408 839.916 398.845 C 844.047 405.699 840.692 409.066 852.163 408.477 C 857.462 403.651 848.249 398.323 851.999 385.613 C 856.156 384.228 864.335 381.061 868.375 381.34 L 869.522 382.839 C 880.586 365.689 892.068 387.005 898.558 396.132 C 905.916 387.406 913.857 382.819 921.518 374.351 C 907.033 364.217 900.801 359.878 884.468 352.6 L 895.087 341.487 C 886.789 328.574 872.458 321.097 857.533 319.376 C 841.573 326.307 849.285 340.806 834.915 341.872 C 833.126 344.109 833.293 344.137 832.478 346.94 z M 695.972 1041.21 L 697.387 1041.1 C 708.889 1040.23 717.974 1044.16 726.826 1040.15 L 728.155 1038.18 C 727.482 1034.86 724.862 1033 722.082 1031.25 C 704.582 1020.19 693.644 1017.57 673.329 1017.05 C 669.532 1016.95 665.085 1015.76 661.367 1015.83 C 666.005 1023.5 671.892 1025.46 671.901 1032.67 C 666.453 1040.27 655.337 1034.46 649.778 1038.56 C 650.58 1041.77 649.797 1040.34 652.705 1042.7 C 666.105 1045.84 673.481 1033.89 685.951 1051.17 C 689.52 1047.07 691.509 1044.39 695.972 1041.21 z M 549.037 1730.14 C 553.114 1745.39 572.356 1751.22 586.009 1753.1 C 577.482 1741.27 564.731 1728.51 549.037 1730.14 z M 637.713 306.327 C 633.577 311.058 614.94 325.527 609.053 330.217 C 614.509 330.058 618.805 330.223 624.085 328.779 C 633.308 326.725 642.51 325.369 649.811 320.3 C 652.492 323.818 654.606 326.188 657.612 329.443 C 668.768 323.414 666.8 321.214 675.093 314.271 L 674.504 313.151 C 666.959 312.794 663.081 311.419 657.106 307.051 C 651.434 307.15 642.922 307.699 637.713 306.327 z M 615.801 1046.92 L 618.87 1044.27 C 619.064 1038.02 602.693 1037.02 597.857 1036.98 L 596.082 1040.08 C 598.195 1047.45 609.489 1048 615.801 1046.92 z M 1381.93 483.513 L 1379.83 484.585 C 1383.7 485.077 1385.78 485.106 1389.71 485.12 C 1393.64 489.552 1402.04 497.67 1402.5 503.284 L 1401.68 504.216 C 1390.01 517.704 1401.38 523.288 1414.32 524.7 C 1419.61 523.9 1423.78 527.082 1427.05 525.384 C 1436.19 520.634 1429.7 510.292 1433.56 502.243 C 1427.11 494.97 1405.87 476.369 1397.22 473.054 C 1385.55 466.314 1394.18 459.531 1386.84 452.054 C 1381.37 450.153 1380.67 450.709 1374.91 452.49 C 1369.72 454.059 1367.08 454.844 1363.55 458.927 L 1363.09 462.89 C 1367.54 466.619 1369.05 467.489 1371.07 473.21 C 1373.16 479.11 1375.22 483.294 1381.93 483.513 z M 617.438 963.236 C 618.208 959.2 619.514 955.027 618.335 951.221 C 616.032 949.147 617.334 949.86 614.218 949.125 C 611.863 955.947 610.672 959.066 617.438 963.236 z M 1297.91 251.336 C 1306.29 254.171 1317.37 256.834 1326.08 259.185 C 1316.94 252.677 1293.22 241.353 1281.98 242.839 L 1281.03 244.256 L 1278.74 246.165 C 1270.12 242.164 1264.73 242.664 1255.3 242.415 C 1264.21 247.308 1307.15 268.623 1315.2 269.606 L 1315.68 268.559 C 1310.16 261.562 1306.34 260.004 1298.63 255.755 L 1297.91 251.336 z M 1212.55 379.547 C 1209.97 376.807 1207.1 373.597 1204.42 371.022 C 1196.25 374.024 1194.18 375.461 1188.13 381.756 C 1192.87 381.775 1198.78 381.276 1202.92 383.085 L 1204.12 384.925 C 1202.96 388.41 1203.84 386.602 1199.35 389.251 C 1202.04 393.002 1206.4 392.02 1212.29 398.788 C 1229.38 404.417 1238.02 406.098 1254.99 398.02 C 1281.82 385.241 1268.59 366.08 1244.51 367.084 C 1234.42 371.377 1230.63 371.622 1219.72 372.908 L 1212.55 379.547 z M 860.438 413.962 C 867.102 415.233 866.471 415.138 871.637 419.116 C 869.294 415.445 867.313 413.687 869.435 409.618 C 874.464 406.915 875.24 407.4 875.51 401.73 C 873.08 399.301 871.579 397.087 868.327 396.649 C 863.047 399.484 863.008 408.045 860.438 413.962 z M 845.378 238.658 C 845.204 234.329 844.943 229.803 844.918 225.49 C 834.006 229.448 826.074 232.539 818.071 241.581 C 819.473 243.298 821.23 242.885 824.217 243.28 C 823.272 245.664 814.637 252.815 812.124 255.055 C 821.522 252.955 853.195 238.736 856.865 246.727 C 853.37 251.672 843.961 251.683 838.167 252.291 C 827.942 261.95 821.988 259.797 808.875 263.837 C 825.143 266.322 836.707 267.258 853.397 267.714 C 853.327 265.197 853.363 264.538 852.195 262.31 C 852.951 257.747 853.1 257.154 855.449 253.184 C 856.947 254.802 856.073 254.105 858.104 255.231 C 874.451 244.954 882.524 239.653 901.918 247.076 C 914.516 239.81 927.596 238.547 938.116 232.292 L 934.971 230.045 C 932.844 231.603 933.719 231.156 931.115 231.753 C 927.001 230.758 924.998 230.758 924.871 226.149 C 927.721 222.67 928.449 223.341 933.474 221.538 C 940.117 220.675 957.279 217.189 961.905 219.72 C 963.853 217.363 964.019 215.833 965.09 212.838 C 948.46 210.091 867.139 216.207 854.424 226.101 C 853.46 226.851 852.928 227.641 852.423 228.736 C 856.472 235.001 882.255 226.382 890.524 230.799 L 891.451 232.767 C 890.109 236.122 888.915 238.952 887.391 242.228 L 885.943 242.799 C 882.386 240.84 882.507 234.437 881.431 234.493 C 871.273 235.017 856.357 235.43 846.319 238.362 C 846.005 238.46 845.692 238.559 845.378 238.658 z M 557.367 972.33 C 548.819 973.679 525.939 979.025 525.291 989.29 C 529.666 991.099 546.628 981.871 551.775 982.998 C 568.412 986.641 606.55 997.941 611.336 1015.94 L 612.291 1016.67 C 628.841 1017.17 637.193 1018.83 652.769 1012.47 C 629.684 997.682 584.59 970.097 557.367 972.33 z"/>
<path transform="translate(0,0)" fill="rgb(254,254,254)" d="M 294.912 537.98 L 294.74 536.466 C 305.931 518.536 324.435 493.964 337.732 477.469 C 401.505 398.96 477.912 331.625 563.816 278.228 C 571.367 273.498 595.962 257.49 603.642 256.672 C 604.525 261.787 603.595 279.993 601.488 284.985 C 602.655 286.756 602.017 286.188 603.097 286.978 C 600.815 290.18 581.041 299.982 576.451 302.873 C 565.56 309.732 554.91 317.534 543.861 324.087 C 538.548 327.238 534.221 324.296 528.811 330.768 L 530.384 333.36 C 521.79 341.137 514.787 346.722 506.812 355.265 C 516.619 350.453 549.46 333.864 558.61 335.079 L 557.612 339.209 C 561.371 341.033 573.414 337.923 578.853 337.484 C 583.868 342.595 583.314 341.66 589.478 344.1 C 595.199 346.365 603.626 347.161 602.036 354.397 C 599.03 358.342 595.215 359.851 590.785 362.277 C 596.357 362.063 615.595 360.683 618.938 362.387 L 619.482 365.66 C 624.967 366.297 636.997 352.865 643.485 353.088 C 657.469 353.568 672.645 367.224 687.237 357.013 C 692.358 353.43 696.632 334.514 706.771 344.187 C 704.623 351.146 694.51 353.391 691.863 358.458 C 693.206 359.266 694.891 360.014 696.471 359.162 C 708.241 352.815 718.222 350.467 714.224 335.539 C 717.254 330.418 738.796 313.486 744.525 316.087 C 745.085 322.257 737.602 335.239 734.391 340.981 L 735.801 341.325 C 739.756 342.321 741.238 342.283 743.992 344.949 C 747.02 353.936 736.929 358.373 738.233 362.749 C 747.511 363.1 765.885 345.936 776.867 339.162 C 783.481 341.783 789.163 343.775 795.929 345.995 C 787.916 355.256 760.565 393.604 745.682 379.159 C 745.156 378.642 744.637 378.117 744.126 377.585 C 741.162 377.401 742.563 377.095 739.868 378.859 L 739.114 380.753 C 735.211 390.404 726.791 386.839 722.049 391.029 C 704.018 406.963 681.958 410.55 661.913 424.41 C 648.602 433.615 628.918 445.112 621.611 461.297 C 617.479 474.46 629.453 470.818 620.203 493.065 L 633.572 490.532 C 659.626 500.607 654.422 512.805 690.05 517.373 C 684.706 527.789 670.895 554.024 686.393 561.684 C 702.904 563.737 708.219 532.726 710.532 521.315 C 731.571 513.558 760.438 498.476 746.335 471.386 C 763.16 456.016 763.762 444.078 773.955 424.922 C 774.256 424.358 783.465 423.249 784.496 423.831 C 804.387 424.813 819.687 436.576 835.834 447.512 L 836.597 449.11 C 829.731 455.273 820.283 461.678 829.78 471.662 C 846.679 489.426 865.658 451.741 873.881 453.999 C 883.478 465.156 884.288 494.694 888.419 508.111 C 892.057 519.923 916.8 515.641 917.906 530.151 C 934.276 543.264 936.344 545.686 924.056 563.419 C 927.42 565.826 930.275 567.294 932.053 570.919 L 931.608 572.762 C 926.468 575.189 916.782 573.642 910.778 573.14 C 913.51 570.021 917.211 566.609 918.088 562.743 L 916.719 561.685 C 910.915 562.623 907.3 565.53 902.128 567.733 C 896.808 569.998 887.89 571.813 882.086 571.908 C 853.813 572.367 825.116 572.142 796.844 572.118 L 625.002 572.137 C 600.37 572.285 572.094 571.139 547.7 573.39 C 538.399 574.248 528.55 580.927 522.841 588.579 C 515.928 597.701 513.07 609.263 514.937 620.555 C 516.643 630.64 521.61 638.083 528.426 645.386 C 542.913 660.905 558.453 675.712 573.473 690.71 L 664.539 781.71 C 658.562 789.532 659.821 796.637 653.384 803.941 C 637.981 821.417 585.979 843.967 586.131 870.096 C 586.245 889.531 590.598 908.428 589.119 930.523 C 587.785 927.616 588.328 910.452 587.398 905.583 C 584.786 914.453 587.503 928.467 585.201 937.687 C 581.854 940.976 581.304 942.355 576.511 941.99 C 568.006 933.235 581.78 905.685 558.644 890.195 L 557.717 888.987 C 546.875 874.665 550.274 871.652 530.364 873.589 C 526.908 871.912 520.849 868.801 517.2 868.518 C 509.179 867.896 489.725 864.637 485.384 873.276 C 485.228 876.89 485.344 877.314 485.876 880.747 C 484.847 882.101 485.07 882.452 483.238 882.661 C 465.07 884.736 455.478 864.919 428.211 878.807 C 420.966 882.497 413.972 887.73 408.6 893.845 C 394.508 909.883 384.389 966.273 385.934 988.074 C 386.485 995.851 392.858 1009.65 391.549 1016.05 C 385.489 1023.44 375.213 1038.19 375.75 1048.15 C 376.235 1057.16 381.475 1062.52 380.771 1070.9 C 359.053 1065.26 325.38 1036.91 310.551 1019.59 C 299.382 1007.04 312.186 987.265 308.586 974.998 C 298.886 941.934 285.37 910.25 277.136 876.492 C 275.092 868.113 278.691 838.489 269.624 837.337 C 258.194 850.049 270.851 917.124 272.204 936.071 C 272.624 941.957 279.698 960.804 275.739 964.234 C 259.147 951.809 262.008 931.28 258.445 914.145 C 257.268 908.486 246.476 902.511 246.702 894.112 C 248.257 890.648 251.338 889.431 254.709 887.449 C 254.25 882.608 253.03 877.79 252.491 872.955 C 250.288 853.179 253.078 832.305 254.506 812.49 C 248.005 800.841 244.645 793.756 245.245 779.951 C 247.547 727.07 270.565 680.959 297.372 636.516 C 306.028 622.166 312.399 609.757 324.555 598.41 C 324.182 597.721 323.81 597.031 323.437 596.342 C 319.268 589.923 320.465 581.688 323.687 574.881 C 327.514 566.793 334.913 560.171 339.721 552.219 C 356.118 525.098 370.778 496.871 387.728 470.08 C 392.177 463.052 396.332 456.539 399.71 448.912 C 349.087 476.895 276.423 606.012 254.682 658.764 C 247.367 676.511 239.072 700.076 230.883 718.549 C 226.843 720.333 226.02 721.047 222.2 720.348 C 219.007 718.016 217.516 713.328 215.827 709.55 C 217.252 705.764 219.668 701.22 221.501 697.516 L 218.008 687.753 C 221.287 680.148 231.162 657.912 235.314 651.878 L 235.646 653.033 C 234.358 655.612 227.302 672.992 227.483 675.464 C 228.681 674.409 255.061 621.135 257.689 614.815 C 259.938 609.405 269.29 605.103 271.902 595.878 C 274.724 585.912 279.183 576.575 281.803 566.107 C 283.541 559.164 294.271 545.222 294.912 537.98 z"/>
<path transform="translate(0,0)" fill="rgb(0,0,0)" d="M 340.355 554.706 C 341.325 559.407 338.412 565.534 336.73 570.287 L 339.187 579.902 C 336.773 586.566 335.558 589.723 330.4 594.554 L 328.996 593.929 C 324.687 582.575 335.536 564.87 340.355 554.706 z"/>
<path transform="translate(0,0)" fill="rgb(254,254,254)" d="M 1551.32 408.059 C 1554.74 407.145 1559.4 406.435 1562.98 405.773 C 1567.74 408.748 1574.19 441.49 1593.82 440.64 C 1591.5 437.986 1589.55 437.036 1588.55 433.575 C 1586.82 427.588 1580.45 427.478 1577.17 421.923 L 1577.57 420.907 C 1583.94 421.061 1584.51 421.595 1589.79 417.557 C 1592.08 415.808 1595.49 414.6 1597.96 416.77 L 1597.6 416.687 C 1600.5 417.556 1608.99 416.883 1608.64 416.676 C 1614.87 420.338 1622.1 424.786 1628.19 428.709 C 1633.82 432.339 1633.82 433.905 1640.4 432.296 C 1643.52 434.663 1642.39 433.896 1643.52 439.022 C 1645.66 438.687 1644.73 439.119 1646.34 437.775 C 1647.16 429.905 1639.72 423.234 1642.68 415.403 L 1646.39 412.932 C 1808.86 578.224 1897.48 802.262 1892.03 1033.97 C 1888.01 1266.28 1799.21 1480.84 1631.53 1642.78 C 1549.12 1722.49 1451.74 1785.08 1345 1826.92 C 1336.79 1830.12 1304 1843.02 1298.13 1843.4 L 1297.63 1842.86 C 1290.8 1828.82 1311.73 1820.93 1322.26 1818.28 L 1327.75 1816.62 C 1336.3 1814.5 1340.09 1812.32 1348.05 1808.43 C 1350.6 1807.35 1358.71 1802.55 1361.52 1800.97 C 1367.86 1798.28 1372.71 1796.1 1378.82 1792.95 C 1370.98 1794.42 1365.24 1795.62 1358.22 1799.51 C 1352.8 1802.15 1350.6 1803.72 1344.52 1804.08 C 1339.91 1802.62 1334.07 1799.47 1329.85 1800.36 C 1323.21 1801.43 1310.73 1801.26 1307.2 1803.93 L 1304.69 1800.26 C 1311.49 1796.69 1327.38 1790.8 1335.13 1787.66 C 1353.32 1780.49 1371.23 1772.64 1388.83 1764.14 C 1478.85 1720.28 1561.19 1662.14 1632.64 1591.98 C 1731.72 1494.7 1804.35 1378.73 1839 1244.19 C 1846.98 1213.21 1857.97 1170.26 1858.28 1138.42 C 1844.5 1171.64 1827 1204.5 1814.93 1238.47 C 1807.16 1261.8 1805.6 1286.42 1800.13 1310.33 C 1794.04 1336.99 1782.01 1360.8 1770.67 1385.43 C 1765 1397.76 1759.38 1410.35 1749.34 1419.8 C 1755.88 1401.4 1763.47 1382.38 1770.47 1364.07 C 1750.42 1386.08 1739.35 1414.51 1726.26 1440.77 C 1703.82 1485.77 1625.94 1583.04 1578.05 1597.6 C 1574.84 1598.58 1572.37 1598.91 1569.32 1597.27 C 1563.95 1588.48 1576.01 1575.39 1579.91 1565.44 C 1584.57 1553.57 1582.61 1545.92 1586.08 1533.61 C 1590.58 1517.66 1599.85 1500.23 1601.88 1483.99 C 1603.88 1468.01 1599.59 1455.28 1605.92 1438.77 C 1616.76 1410.49 1640.38 1390.89 1645.8 1360.85 C 1651.44 1329.67 1639 1312.47 1635.17 1284.12 C 1649.9 1266.67 1677.53 1240.51 1694.47 1223.39 L 1791.5 1125.94 C 1814.59 1102.83 1837.98 1079.82 1860.06 1055.85 C 1871.6 1043.32 1881.87 1031.05 1880.31 1013.18 C 1879.51 1004.01 1876.78 998.512 1871.13 991.528 C 1855.8 972.587 1838.47 955.612 1821.3 938.419 L 1746.64 864.401 L 1655.23 774.458 C 1631.17 750.616 1602.04 720.933 1576.63 698.95 C 1583.95 696.757 1600.49 690.825 1607.29 693.898 C 1612.34 699.176 1614.66 710.889 1616.1 719.13 C 1620.98 747.091 1649.73 738.721 1668.12 754.987 C 1672.08 758.486 1691 765.866 1696.3 764.419 C 1703.76 756.671 1691.2 740.126 1701.09 733.97 C 1705.06 731.501 1725.32 741.065 1730.22 742.43 C 1738.8 744.818 1747.27 747.143 1755.72 749.391 L 1766.15 744.327 C 1773.14 746.608 1782.16 749.268 1783.18 738.25 C 1785.04 718.13 1776.77 688.39 1765.85 671.707 C 1752.24 688.01 1757.47 679.497 1741.96 678.066 C 1738.44 680.649 1735.58 683.19 1731.05 680.955 C 1716.66 673.845 1706.14 657.305 1698.69 643.554 C 1697.73 641.774 1698.47 641.437 1699.25 639.776 C 1702.19 638.231 1704.67 637.421 1706.27 634.631 L 1705.47 631.942 C 1702.22 630.831 1699.18 633.014 1695.47 634.667 C 1684.84 631.819 1681.66 630.724 1677.83 641.568 C 1679.28 644.793 1681.98 650.994 1683.9 653.695 C 1687.65 658.941 1693.11 664.183 1695.66 670.194 C 1695.15 673.104 1694.8 673.652 1695.6 676.503 C 1699.16 679.807 1700.48 679.738 1699.76 684.505 C 1698.66 685.589 1698.4 686.332 1696.75 686.448 C 1683.93 687.351 1650.29 634.83 1638.74 624.147 C 1634.21 619.956 1586.26 589.153 1582.43 588.146 C 1581.68 587.949 1580.88 588.208 1580.11 588.239 L 1578.32 590.244 C 1574.28 610.734 1637.45 638.247 1642.86 649.388 C 1641.5 653.462 1641.07 649.229 1636.83 652.705 C 1637.35 661.589 1646.72 671.399 1641.18 679.8 C 1637.39 685.548 1637.28 687.72 1636.67 694.184 C 1630.47 692.637 1614.15 690.046 1612.26 683.362 C 1615.64 678.109 1623.98 679.115 1629.95 677.53 C 1631.92 675.692 1632.09 676.144 1632.39 673.165 C 1634.4 653.114 1613.9 645.365 1599.83 637.183 C 1588.67 630.698 1578.12 624.278 1569.27 614.909 C 1565.83 611.263 1558.92 604.663 1554 604.186 C 1550.3 606.01 1546.64 614.069 1542.67 617.131 C 1535.42 622.692 1523.62 618.608 1517.25 624.883 C 1513.85 628.226 1515.37 632.075 1515.59 636.082 C 1504.56 633.864 1461.2 574.608 1438.97 574.446 C 1435.66 574.422 1419.29 570.798 1417.26 568.563 C 1416.83 565.509 1417 565.674 1418.29 562.804 C 1423.75 557.499 1434.08 558.03 1442.38 557.117 L 1440.69 548.826 C 1444.08 544.837 1461.33 547.442 1459.78 534.96 C 1458.86 527.508 1467.23 522.246 1472.13 516.539 C 1472.21 512.021 1471.64 505.963 1471.34 501.338 C 1478.09 499.184 1482.82 498.468 1487.73 493.387 C 1489.99 485.414 1476.61 480.315 1473.62 471.213 C 1473.41 468.066 1473.17 468.981 1473.95 466.097 L 1476.67 465.077 C 1481.12 465.773 1482.64 466.802 1486.78 468.809 C 1491.94 472.479 1493.45 482.219 1499.88 486.439 C 1506.69 490.905 1510.3 484.59 1517.51 485.39 C 1519.45 485.604 1526.54 488.841 1528.68 489.803 C 1532.6 485.798 1536.01 482.467 1540.14 478.682 C 1544.39 479.195 1547.17 479.891 1551.25 478.8 C 1557.8 473.518 1553.55 467.767 1549.91 461.92 C 1545.68 455.123 1541.1 449.11 1537.84 441.718 L 1537.29 440.46 C 1541.96 442.588 1547.83 445.853 1552.84 445.577 C 1556.66 438.97 1533.14 429.017 1531.71 421.635 C 1537.89 416.779 1549.3 420.826 1554.4 414.483 C 1554.49 411.67 1553.04 410.39 1551.32 408.059 z"/>
<path transform="translate(0,0)" fill="rgb(0,0,0)" d="M 1715 552.388 C 1721.05 555.635 1719.07 563.032 1723.21 568.532 C 1729.79 577.255 1763.88 603.693 1757.68 614.842 C 1751.14 617.864 1739.1 613.45 1729.67 612.923 L 1728.34 612.861 C 1721.22 619.783 1718.47 628.799 1708.06 623.829 C 1707.3 623.271 1706.54 622.702 1705.79 622.122 C 1694.8 613.562 1678.88 572.543 1686.83 562.676 C 1698.65 558.635 1702 578.428 1713.42 579.765 C 1716.42 577.867 1715.44 579.164 1716.43 575.708 C 1715.37 571.872 1709.73 567.942 1706.42 565.108 C 1709.14 560.229 1711.72 556.866 1715 552.388 z"/>
<path transform="translate(0,0)" fill="rgb(0,0,0)" d="M 1789.54 774.996 C 1809.09 782.428 1841.64 870.32 1849.68 889.964 C 1857.68 909.497 1862.62 929.283 1858.58 950.32 C 1855.61 947.296 1852.96 941.665 1851.55 937.643 C 1834.2 888.239 1816 839.953 1795.41 791.81 C 1793.47 787.292 1790.11 779.602 1789.54 774.996 z"/>
<path transform="translate(0,0)" fill="rgb(254,254,254)" d="M 215.214 772.415 C 206.045 810.266 198.183 846.869 192.626 885.273 C 164.535 1079.4 199.507 1282.22 303.349 1449.6 C 407.969 1618.24 571.61 1745.56 759.61 1807.66 C 771.465 1811.57 784.916 1815.46 796.477 1819.92 C 794.911 1822.13 795.436 1821.49 793.33 1823.23 C 784.308 1825.63 770.082 1822.84 761.522 1819.48 L 753.962 1816.23 C 733.503 1810.57 713.319 1803.97 693.478 1796.43 C 670.162 1781.72 670.348 1789.51 645.126 1782.39 C 643.872 1782.04 644.069 1782.21 642.577 1782.52 C 644.089 1789.34 675.739 1799.34 682.869 1804.72 C 687.992 1808.04 692.475 1810.86 697.776 1813.9 C 715.047 1824.02 717.697 1823.34 735.207 1829.43 L 743.86 1831.26 L 758.636 1830.92 C 772.533 1829.93 771.215 1835.63 778.303 1845.25 C 777.15 1848.32 776.129 1850.51 775.523 1853.74 C 680.538 1826.81 590.949 1783.6 510.746 1726.03 C 373.18 1628.64 267.416 1492.81 206.707 1335.57 C 186.361 1284.43 171.576 1231.25 162.607 1176.94 C 168.15 1171.16 164.736 1163.72 161.03 1157.99 C 155.705 1148.94 157.194 1136.38 155.574 1125.15 C 139.033 1010.55 152.907 890.17 182.383 779.465 L 183.907 778.783 C 191.485 779.825 190.914 788.287 191.537 794.346 L 193.514 786.36 C 195.149 788.099 195.806 793.276 196.435 796.094 C 195.967 782.57 195.003 783.465 201.73 772.491 L 215.214 772.415 z M 586.009 1753.1 C 577.482 1741.27 564.731 1728.51 549.037 1730.14 C 553.114 1745.39 572.356 1751.22 586.009 1753.1 z"/>
<path transform="translate(0,0)" fill="rgb(175,174,174)" fill-opacity="0.72549" d="M 549.037 1730.14 C 564.731 1728.51 577.482 1741.27 586.009 1753.1 C 572.356 1751.22 553.114 1745.39 549.037 1730.14 z"/>
<path transform="translate(0,0)" fill="rgb(254,254,254)" d="M 601.243 1178.9 C 604.831 1176.22 612.459 1167.19 614.418 1163.64 C 625.15 1144.22 638.499 1139.4 658.304 1132.65 C 663.768 1130.6 670.188 1125.17 676.333 1125.52 C 679.942 1130.4 672.933 1136.75 673.711 1142.93 C 681.252 1146.28 692.66 1129.85 699.262 1134.45 C 719.253 1148.37 743.876 1154.84 768.651 1149.9 C 753.943 1167.62 727.518 1191.89 710.64 1208.94 L 611.167 1309.41 C 594.209 1326.54 577.784 1342.04 561.171 1359.75 C 552.533 1344.13 556.343 1344.89 565.9 1331.81 C 545.031 1294.4 570.853 1286.11 590.055 1257.98 C 604.727 1236.48 593.649 1207.94 585.801 1185.85 C 587.849 1177.73 594.05 1179.14 601.243 1178.9 z"/>
<path transform="translate(0,0)" fill="rgb(0,0,0)" d="M 669.868 1152.47 C 677.24 1154.85 676.448 1166.78 671.566 1172.32 C 664.448 1167.72 666.183 1158.74 669.868 1152.47 z"/>
<path transform="translate(0,0)" fill="rgb(254,254,254)" d="M 1499.31 462.344 C 1500.74 458.069 1500.92 456.933 1500.43 452.453 L 1501.78 451.455 C 1500.4 451.013 1500.76 451.419 1500.3 450.729 C 1509.86 452.985 1506.76 448.726 1514.24 455.845 C 1516.8 457.629 1515.68 456.513 1516.88 460.092 C 1516.16 465.093 1509.86 470.732 1504.85 471.801 C 1499.93 470.422 1498.71 467.385 1499.31 462.344 z"/>
<path transform="translate(0,0)" fill="rgb(254,254,254)" d="M 1156.05 639.061 C 1164.12 638.505 1177.48 638.995 1186 638.997 L 1245.14 638.979 C 1298.59 638.974 1354.84 638.325 1408.09 639.157 C 1424.02 647.694 1480.92 708.36 1496.54 723.928 C 1540.65 767.217 1584.53 810.749 1628.16 854.523 L 1721.55 947.259 C 1739.8 965.297 1758.74 983.594 1776.22 1002.37 C 1779.93 1006.35 1783.48 1012.4 1783.49 1017.94 C 1783.5 1022.78 1774.14 1033.76 1770.83 1037.36 C 1753.89 1055.77 1735.7 1072.93 1718.13 1090.62 L 1617.67 1191.8 C 1552.67 1256.98 1485.07 1327.91 1418.65 1390.92 C 1407.35 1400.66 1396.27 1397.87 1381.97 1397.89 L 1330.67 1397.92 C 1274.99 1397.93 1219.31 1398.06 1163.63 1398.1 C 1157.13 1398.11 1154.17 1397.04 1149.95 1392 C 1143.28 1384.01 1149.3 1376.41 1155.22 1370.19 C 1164.11 1360.85 1173.5 1351.77 1182.67 1342.68 L 1234.07 1291.57 L 1401.46 1124.09 L 1454.25 1071.31 C 1465.37 1060.18 1477.07 1049.49 1486.88 1037.2 C 1510.14 1008.11 1480.57 986.526 1461.85 967.614 C 1446.96 952.455 1431.9 937.47 1416.66 922.661 L 1232.6 739.97 L 1178.09 685.488 C 1169.2 676.763 1159.51 668.467 1151.1 659.38 C 1144.16 651.881 1149.89 643.981 1156.05 639.061 z"/>
<path transform="translate(0,0)" fill="rgb(254,254,254)" d="M 657.618 639.235 C 671.366 638.431 690.474 638.941 704.657 638.94 L 790.784 638.973 L 855.41 639.02 C 867.176 638.964 885.713 638.323 896.937 639.217 L 898.821 639.378 C 909.92 640.248 959.433 693.01 970.663 704.056 C 1013.49 745.916 1056.03 788.079 1098.26 830.54 L 1217.81 949.077 C 1235.74 966.915 1254.67 985.107 1272.24 1003.32 C 1275.55 1006.74 1278.44 1014.8 1278.29 1019.3 C 1278.15 1023.42 1267.59 1035.58 1264.79 1038.47 C 1239.96 1064.04 1214.31 1088.94 1189.01 1114 L 1074.59 1228.12 L 980.191 1322.6 C 958.562 1344.38 934.129 1369.69 911.509 1390.23 C 897.98 1401.92 878.381 1397.75 861.231 1397.86 L 775.582 1398.04 L 700.438 1398.24 C 694.371 1398.25 688.418 1398.35 681.442 1398.26 C 666.778 1398.09 643.714 1401.49 651.24 1378.14 C 652.27 1374.94 667.842 1360.02 671.069 1356.78 C 684.354 1343.41 698.069 1330.17 711.426 1316.73 L 901.522 1125.42 L 957.83 1069.03 C 962.278 1064.6 967.653 1058.86 972.197 1054.71 C 1014.98 1015.64 1003.3 1009.68 966.664 973.198 L 930.597 937.001 L 733.041 740.664 C 711.662 719.491 690.705 698.087 668.861 677.379 C 658.217 667.289 636.975 650.851 657.618 639.235 z"/>
<path transform="translate(0,0)" fill="rgb(254,254,254)" d="M 624.247 1464.75 C 672.284 1466.57 730.15 1465.21 778.986 1465.19 L 1118.58 1465.3 C 1096.04 1490.26 1106.45 1511.79 1089.3 1542.59 C 1069.34 1578.45 1067.6 1580.56 1026.26 1590.27 C 1016.89 1592.87 985.875 1606.49 986.613 1618.12 C 988.354 1645.54 978.315 1645.26 964.395 1662.73 C 940.548 1692.65 930.706 1704.05 892.971 1685.09 C 901.837 1699.9 908.857 1698.71 916.352 1708.79 C 916.904 1712.65 917.085 1710.75 915.29 1714.63 C 897.744 1731.63 872.582 1722.35 866.351 1728.81 C 867.29 1732.41 871.655 1735.12 874.518 1740.02 L 873.843 1741.56 C 868.522 1742.73 857.954 1740.17 850.892 1740.03 L 849.89 1741.29 C 853.009 1749.29 867.609 1753.37 863.607 1763.11 C 858.032 1767.66 853.37 1765.68 849.648 1770.01 L 850.014 1772.09 C 854.606 1778.01 866.044 1782.27 873.238 1785.5 C 871.218 1786.79 859.959 1793.04 859.64 1793.56 C 849.35 1810.23 903.87 1825.61 907.3 1828.39 L 906.07 1829.62 C 888.391 1832.83 842.552 1815.58 825.379 1806.61 C 805.737 1796.35 781.87 1778.34 774.87 1756.57 C 778.123 1760.01 783.065 1766.22 787.562 1766.49 C 786.17 1754.25 766.571 1736.03 758.183 1728.42 C 754.601 1725.16 747.843 1710.66 745.988 1705.83 C 742.02 1695.5 746.085 1683.6 744.429 1672.04 C 742.728 1660.15 737.059 1649.41 734.777 1638.08 C 729.152 1610.14 731.041 1562.01 713.538 1539.11 C 701.33 1523.15 673.982 1515.17 658.586 1503.75 C 646.122 1494.51 634.265 1477.39 624.247 1464.75 z"/>
<path transform="translate(0,0)" fill="rgb(254,254,254)" d="M 1069.61 210.402 C 1079.57 209.354 1134.48 210.374 1136.16 221.468 C 1132.78 223.15 1124.12 222.781 1119.58 223.119 L 1119.86 223.933 C 1124.92 225.923 1132.98 225.044 1140.39 227.547 C 1148.89 223.958 1165.84 217.658 1172.91 226.026 C 1173.17 232.936 1159.28 234.273 1155.67 239.62 C 1150.34 247.513 1174.17 257.987 1175.28 267.55 L 1172.19 269.148 L 1171.81 270.346 C 1175.32 276.125 1183.52 276.123 1184.53 283.084 C 1181.78 284.13 1182.63 283.452 1180.74 285.489 C 1182.06 289.042 1184.77 293.511 1181.46 296.152 C 1175.47 296.028 1167.33 289.507 1163.04 292.303 C 1164.04 298.985 1175.19 297.562 1181.1 303.332 C 1186.91 309.001 1188.47 312.092 1192.28 318.927 C 1191.68 321.576 1190.51 327.857 1189.18 329.936 C 1178.64 346.388 1149.17 353.456 1131.72 357.487 C 1117.94 376.59 1113.38 380.31 1089.55 385.559 C 1071.82 389.465 1076.17 396.648 1072.3 409.524 C 1071.41 412.471 1062.71 420.456 1061.88 423.064 C 1057.57 436.655 1057.71 440.926 1050.31 453.231 C 1040.47 463.351 1035.65 456.999 1027.57 449.059 C 1023.2 448.736 1013.49 448.221 1009.97 446.52 C 998.664 441.065 988.507 421.384 984.326 409.885 C 978.561 394.029 969.504 369.187 984.914 356.269 C 991.152 351.041 995.47 350.235 999.073 341.843 C 998.944 338.745 999.581 339.967 997.669 337.864 C 988.457 335.203 991.859 341.78 983.571 344.159 C 979.3 343.366 980.948 344.37 978.231 341.442 C 974.397 323.845 992.983 331.64 996.943 329.587 C 997.685 318.38 986.107 319.885 979.214 320.39 C 977.393 315.343 981.326 301.345 976.085 289.512 C 964.557 263.483 940.973 276.904 920.073 270.385 C 917.898 269.706 917.886 268.548 917.298 266.844 C 921.137 263.32 925.324 265.415 930.721 261.745 L 930.37 260.657 L 924.995 259.517 C 923.871 256.238 924.157 254.94 924.308 251.525 C 926.9 247.847 935.84 246.122 940.315 245.055 C 949.803 242.793 949.496 242.096 954.044 234.116 C 980.431 223.041 992.868 219.76 1021.51 217.876 C 1027.58 217.477 1032.17 219.039 1038.88 218.6 C 1045.34 212.173 1046.63 212.989 1055.44 211.913 C 1060.11 211.341 1064.92 210.88 1069.61 210.402 z"/>
<path transform="translate(0,0)" fill="rgb(0,0,0)" d="M 1162.11 312.784 C 1172.48 312.436 1180.41 318.481 1186.49 326.441 C 1175.99 324.831 1163.98 325.235 1162.11 312.784 z"/>
<path transform="translate(0,0)" fill="rgb(0,0,0)" fill-opacity="0.462745" d="M 902.6 375.325 C 906.109 376.465 907.936 377.037 911.596 377.675 L 911.152 378.706 L 905.692 379.546 C 904.105 381.99 903.4 383.574 900.903 385.087 C 900.204 382.565 901.831 378.309 902.6 375.325 z"/>
<path transform="translate(0,0)" fill="rgb(80,79,80)" fill-opacity="0.00784314" d="M 845.378 238.658 C 845.692 238.559 846.005 238.46 846.319 238.362 C 856.357 235.43 871.273 235.017 881.431 234.493 C 882.507 234.437 882.386 240.84 885.943 242.799 L 887.391 242.228 C 888.915 238.952 890.109 236.122 891.451 232.767 L 890.524 230.799 C 882.255 226.382 856.472 235.001 852.423 228.736 C 852.928 227.641 853.46 226.851 854.424 226.101 C 867.139 216.207 948.46 210.091 965.09 212.838 C 964.019 215.833 963.853 217.363 961.905 219.72 C 957.279 217.189 940.117 220.675 933.474 221.538 C 928.449 223.341 927.721 222.67 924.871 226.149 C 924.998 230.758 927.001 230.758 931.115 231.753 C 933.719 231.156 932.844 231.603 934.971 230.045 L 938.116 232.292 C 927.596 238.547 914.516 239.81 901.918 247.076 C 882.524 239.653 874.451 244.954 858.104 255.231 C 856.073 254.105 856.947 254.802 855.449 253.184 C 853.1 257.154 852.951 257.747 852.195 262.31 C 853.363 264.538 853.327 265.197 853.397 267.714 C 836.707 267.258 825.143 266.322 808.875 263.837 C 821.988 259.797 827.942 261.95 838.167 252.291 C 843.961 251.683 853.37 251.672 856.865 246.727 C 853.195 238.736 821.522 252.955 812.124 255.055 C 814.637 252.815 823.272 245.664 824.217 243.28 C 821.23 242.885 819.473 243.298 818.071 241.581 C 826.074 232.539 834.006 229.448 844.918 225.49 C 844.943 229.803 845.204 234.329 845.378 238.658 z"/>
<path transform="translate(0,0)" fill="rgb(254,254,254)" d="M 821.005 335.01 C 806.715 337.63 737.449 344.58 769.704 312.212 C 779.468 302.414 792.236 294.287 806.638 297.957 L 808.401 300.854 C 801.227 301.609 789.251 310.504 788.278 317.487 C 789.039 317.562 796.796 318.327 796.796 318.327 C 804.893 327.241 807.497 321.46 815.835 313.845 C 822.735 316.237 836.972 317.946 843.572 314.82 C 842.128 312.646 842.755 313.332 840.662 311.813 C 840.166 303.401 860.77 297.037 857.533 319.376 C 841.573 326.307 849.285 340.806 834.915 341.872 C 833.126 344.109 833.293 344.137 832.478 346.94 C 827.882 342.468 827.304 340.317 821.005 335.01 z"/>
<path transform="translate(0,0)" fill="rgb(254,254,254)" d="M 675.093 314.271 C 692.203 300.357 692.817 298.807 716.24 293.549 C 706.507 302.504 686.962 312.884 686.32 325.501 C 686.177 328.328 689.279 332.208 690.995 334.505 C 677.317 344.212 672.976 350.43 655.938 343.886 C 642.639 350.096 614.551 353.823 603.416 342.234 L 603.267 340.08 C 608.635 334.083 625.081 334.821 630.037 330.905 L 629.57 329.659 C 627.682 329.335 625.981 329.034 624.085 328.779 C 633.308 326.725 642.51 325.369 649.811 320.3 C 652.492 323.818 654.606 326.188 657.612 329.443 C 668.768 323.414 666.8 321.214 675.093 314.271 z"/>
<path transform="translate(0,0)" fill="rgb(220,220,220)" fill-opacity="0.988235" d="M 1397.22 473.054 C 1405.87 476.369 1427.11 494.97 1433.56 502.243 C 1429.7 510.292 1436.19 520.634 1427.05 525.384 C 1423.78 527.082 1419.61 523.9 1414.32 524.7 C 1401.38 523.288 1390.01 517.704 1401.68 504.216 L 1402.5 503.284 C 1402.04 497.67 1393.64 489.552 1389.71 485.12 C 1385.78 485.106 1383.7 485.077 1379.83 484.585 L 1381.93 483.513 C 1386.27 483.739 1390.12 483.792 1393.68 481.115 C 1395.49 478.334 1395.36 478.004 1395.24 474.688 L 1397.22 473.054 z"/>
<path transform="translate(0,0)" fill="rgb(254,254,254)" d="M 858.474 413.875 C 859.43 421.554 867.715 426.713 867.784 433.129 L 865.637 434.391 C 842.473 431.884 832.938 418.313 819.015 403.989 C 815.806 400.688 794.264 407.804 787.985 403.277 L 788.186 401.076 C 792.745 394.423 797.628 391.354 805.553 389.666 C 811.773 391.902 820.463 394.148 826.824 396.775 C 827.554 397.076 833.426 395.152 836.088 395.894 C 837.694 396.352 839.065 397.408 839.916 398.845 C 844.047 405.699 840.692 409.066 852.163 408.477 C 855.969 408.728 854.253 408.102 857.361 410.741 L 858.474 413.875 z"/>
<path transform="translate(0,0)" fill="rgb(254,254,254)" d="M 637.713 306.327 C 628.856 303.925 600.121 329.016 594.145 323.677 C 596.013 312.189 654.67 275.034 664.996 290.227 C 664.999 295.678 661.555 298.201 657.749 302.251 C 665.24 302.206 673.569 301.982 680.974 302.309 C 677.594 306.652 676.276 307.857 674.504 313.151 C 666.959 312.794 663.081 311.419 657.106 307.051 C 651.434 307.15 642.922 307.699 637.713 306.327 z"/>
<path transform="translate(0,0)" fill="rgb(254,254,254)" d="M 789.085 274.66 C 792.972 271.45 793.776 272.86 798.713 273.608 L 799.994 274.102 C 817.167 280.544 847.333 269.654 855.048 279.045 C 854.879 281.36 854.343 282.871 852.459 284.424 C 847.118 288.828 801.461 288.555 793.068 287.073 C 789.61 286.463 787.052 285.662 784.33 283.436 L 783.423 280.906 L 789.085 274.66 z"/>
<path transform="translate(0,0)" fill="rgb(148,148,147)" fill-opacity="0.392157" d="M 637.713 306.327 C 642.922 307.699 651.434 307.15 657.106 307.051 C 663.081 311.419 666.959 312.794 674.504 313.151 L 675.093 314.271 C 666.8 321.214 668.768 323.414 657.612 329.443 C 654.606 326.188 652.492 323.818 649.811 320.3 C 642.51 325.369 633.308 326.725 624.085 328.779 C 618.805 330.223 614.509 330.058 609.053 330.217 C 614.94 325.527 633.577 311.058 637.713 306.327 z"/>
<path transform="translate(0,0)" fill="rgb(254,254,254)" d="M 1433.56 502.243 C 1439.78 507.486 1448.32 510.853 1450.93 518.6 C 1451.76 521.063 1451.07 525.977 1449.29 528.299 C 1444.04 532.86 1408.34 543.729 1403.57 543.86 C 1398.4 534.725 1412.63 532.564 1414.32 524.7 C 1419.61 523.9 1423.78 527.082 1427.05 525.384 C 1436.19 520.634 1429.7 510.292 1433.56 502.243 z"/>
<path transform="translate(0,0)" fill="rgb(254,254,254)" d="M 739.043 386.671 C 745.358 389.436 766.528 403.769 759.129 411.269 C 747.74 412.719 747.644 407.389 739.575 407.493 C 738.762 407.963 737.946 408.428 737.127 408.888 C 732.377 411.556 721.045 417.648 717.487 410.698 C 718.889 403.777 733.326 391.945 739.043 386.671 z"/>
<path transform="translate(0,0)" fill="rgb(220,220,220)" fill-opacity="0.819608" d="M 805.553 389.666 C 814.513 389.027 816.124 387.338 823.554 385.317 C 837.499 381.525 829.924 376.819 838.101 372.344 L 839.432 373.117 C 839.923 378.701 839.037 376.881 844.073 381.515 C 845.574 382.897 849.884 385.201 851.999 385.613 C 848.249 398.323 857.462 403.651 852.163 408.477 C 840.692 409.066 844.047 405.699 839.916 398.845 C 839.065 397.408 837.694 396.352 836.088 395.894 C 833.426 395.152 827.554 397.076 826.824 396.775 C 820.463 394.148 811.773 391.902 805.553 389.666 z"/>
<path transform="translate(0,0)" fill="rgb(254,254,254)" d="M 853.397 267.714 C 853.327 265.197 853.363 264.538 852.195 262.31 C 852.951 257.747 853.1 257.154 855.449 253.184 C 856.947 254.802 856.073 254.105 858.104 255.231 C 874.451 244.954 882.524 239.653 901.918 247.076 C 893.206 249.755 875.428 262.19 869.735 269.072 C 865.469 269.165 856.781 269.84 853.397 267.714 z"/>
<path transform="translate(0,0)" fill="rgb(220,220,220)" d="M 674.945 274.367 C 691.793 264.598 707.718 260.058 727.067 257.767 C 721.132 260.584 706.219 268.204 704.939 275.165 L 707.739 276.774 C 705.682 279.869 704.033 283.152 700.797 284.762 C 693.596 287.143 689.078 285.552 681.538 284.199 C 686.392 279.682 691.037 276.809 696.54 273.147 C 688.529 274.134 683.069 274.258 674.945 274.367 z"/>
<path transform="translate(0,0)" fill="rgb(254,254,254)" d="M 1380.24 503.03 C 1383.27 508.119 1386.04 511.32 1385.76 517.242 C 1380.2 523.73 1363.36 534.824 1355.13 528.296 C 1350.17 524.363 1355.62 518.841 1354.96 514.175 C 1358.36 515.249 1362.12 516.54 1365.55 517.307 C 1370.58 512.129 1374.92 507.896 1380.24 503.03 z"/>
<path transform="translate(0,0)" fill="rgb(242,241,241)" d="M 851.999 385.613 C 856.156 384.228 864.335 381.061 868.375 381.34 L 869.522 382.839 C 871.895 386.397 873.506 388.998 876.389 392.184 C 875.067 395.979 875.404 397.605 875.51 401.73 C 873.08 399.301 871.579 397.087 868.327 396.649 C 863.047 399.484 863.008 408.045 860.438 413.962 L 858.474 413.875 L 857.361 410.741 C 854.253 408.102 855.969 408.728 852.163 408.477 C 857.462 403.651 848.249 398.323 851.999 385.613 z"/>
<path transform="translate(0,0)" fill="rgb(254,254,254)" d="M 1561.65 626.316 C 1568.48 628.877 1585.4 666.01 1580.94 674.753 C 1569.07 668.788 1557.64 637.32 1561.65 626.316 z"/>
<path transform="translate(0,0)" fill="rgb(254,254,254)" d="M 740.781 293.091 L 741.44 293.565 C 738.713 298.251 736.606 297.25 735.922 301.443 C 739.032 302.167 739.669 301.988 742.304 303.648 C 738.725 309.608 726.166 320.055 719.74 323.202 C 716.272 323.187 716.227 323.371 712.961 321.835 C 706.421 311.956 733.159 296.324 740.781 293.091 z"/>
<path transform="translate(0,0)" fill="rgb(254,254,254)" d="M 876.389 392.184 C 890.859 407.351 892.58 409.47 879.802 426.4 L 871.637 419.116 C 869.294 415.445 867.313 413.687 869.435 409.618 C 874.464 406.915 875.24 407.4 875.51 401.73 C 875.404 397.605 875.067 395.979 876.389 392.184 z"/>
<path transform="translate(0,0)" fill="rgb(242,241,241)" d="M 1344.36 499.287 C 1349.95 493.894 1359.61 482.808 1366.61 481.713 C 1370.02 483.531 1374.26 485.164 1376.08 488.365 C 1374.24 492.567 1367.09 492.575 1362.73 493.225 C 1357.03 500.731 1355.78 504.773 1354.96 514.175 C 1350.62 509.533 1347.47 504.836 1344.36 499.287 z"/>
<path transform="translate(0,0)" fill="rgb(254,254,254)" d="M 762.021 291.267 C 770.282 291.098 773.32 291.603 781.54 292.949 C 772.93 298.087 764.111 304.424 755.802 310.143 C 752.177 312.139 747.495 315.72 743.816 312.902 C 744.793 306.579 756.863 294.885 762.021 291.267 z"/>
<path transform="translate(0,0)" fill="rgb(242,241,241)" d="M 707.739 276.774 C 716.876 272.993 728.796 264.066 734.965 266.46 C 736.613 269.619 735.939 272.696 735.716 276.383 C 723.617 281.587 714.212 285.525 700.797 284.762 C 704.033 283.152 705.682 279.869 707.739 276.774 z"/>
<path transform="translate(0,0)" fill="rgb(242,241,241)" d="M 933.474 221.538 C 940.117 220.675 957.279 217.189 961.905 219.72 L 963.315 223.52 C 955.247 226.49 945.611 229.197 938.116 232.292 L 934.971 230.045 C 932.844 231.603 933.719 231.156 931.115 231.753 C 927.001 230.758 924.998 230.758 924.871 226.149 C 927.721 222.67 928.449 223.341 933.474 221.538 z"/>
<path transform="translate(0,0)" fill="rgb(220,220,220)" d="M 934.971 230.045 C 932.844 231.603 933.719 231.156 931.115 231.753 C 927.001 230.758 924.998 230.758 924.871 226.149 C 927.721 222.67 928.449 223.341 933.474 221.538 C 932.986 225.789 932.309 225.794 933.748 229.162 L 934.971 230.045 z"/>
<path transform="translate(0,0)" fill="rgb(254,254,254)" d="M 761.128 266.163 C 765.923 265.554 768.471 264.9 772.536 267.692 C 776.435 276.057 765.062 279.967 759.185 281.839 C 754.602 281.947 748.448 281.195 748.205 275.836 C 751.528 270.018 755.017 269.02 761.128 266.163 z"/>
<path transform="translate(0,0)" fill="rgb(242,241,241)" d="M 806.638 297.957 C 815.631 298.418 835.516 297.677 842.304 299.307 L 842.971 301.216 C 836.754 305.827 832.796 304.244 825.849 308.698 C 821.12 308.154 809.917 307.2 806.5 304.386 C 807.971 302.36 808.339 302.662 808.401 300.854 L 806.638 297.957 z"/>
<path transform="translate(0,0)" fill="rgb(254,254,254)" d="M 790.551 243.064 C 792.603 242.897 792.077 242.993 794.182 243.54 C 798.09 248.464 800.88 251.617 795.712 256.815 C 792.01 258.113 789.38 256.919 785.472 255.939 C 780.106 256.485 776.756 257.905 773.116 253.767 L 773.665 251.425 C 779.507 245.247 782.353 245.187 790.551 243.064 z"/>
<path transform="translate(0,0)" fill="rgb(242,241,241)" d="M 1363.09 462.89 C 1359.33 461.872 1356.03 458.173 1355.72 454.251 C 1364.99 450.045 1366.05 442.993 1371.79 440.897 L 1373.65 441.956 C 1375.49 445.599 1374.97 448.228 1374.91 452.49 C 1369.72 454.059 1367.08 454.844 1363.55 458.927 L 1363.09 462.89 z"/>
<path transform="translate(0,0)" fill="rgb(242,241,241)" d="M 789.085 274.66 C 785.568 276.138 783.021 277.894 779.529 276.211 L 779.165 273.871 C 783.87 264.516 794.532 263.154 803.357 267.43 C 803.255 270.406 801.668 270.765 798.713 273.608 C 793.776 272.86 792.972 271.45 789.085 274.66 z"/>
<path transform="translate(0,0)" fill="rgb(148,148,147)" fill-opacity="0.733333" d="M 860.438 413.962 C 863.008 408.045 863.047 399.484 868.327 396.649 C 871.579 397.087 873.08 399.301 875.51 401.73 C 875.24 407.4 874.464 406.915 869.435 409.618 C 867.313 413.687 869.294 415.445 871.637 419.116 C 866.471 415.138 867.102 415.233 860.438 413.962 z"/>
<path transform="translate(0,0)" fill="rgb(242,241,241)" d="M 753.312 249.192 C 754.152 249.395 753.574 249.191 754.732 250.364 C 751.245 256.519 740.872 260.987 734.22 262.427 C 732.604 261.761 733.353 262.297 732.145 260.603 C 734.384 253.364 746.761 250.699 753.312 249.192 z"/>
<path transform="translate(0,0)" fill="rgb(220,220,220)" d="M 824.094 356.518 C 826.27 357.138 825.458 356.795 827.268 358.373 C 827.057 364.143 822.1 367.511 817.708 371.75 L 814.591 371.59 L 813.571 370.026 C 814.436 364.839 820.258 360.088 824.094 356.518 z"/>
<path transform="translate(0,0)" fill="rgb(220,220,220)" d="M 965.09 212.838 C 969.457 213.335 971.888 213.143 975.377 215.524 L 975.875 217.252 C 973.252 221.159 967.89 222.115 963.315 223.52 L 961.905 219.72 C 963.853 217.363 964.019 215.833 965.09 212.838 z"/>
<path transform="translate(0,0)" fill="rgb(220,220,220)" d="M 746.138 1039.28 C 750.56 1039.47 754.644 1039.13 758.359 1041.24 C 760.197 1044.41 759.641 1043.34 758.961 1047.87 C 755.677 1048.01 753.276 1048.35 750.096 1047.49 C 747.688 1045.7 747.135 1042.34 746.138 1039.28 z"/>
<path transform="translate(0,0)" fill="rgb(254,254,254)" d="M 737.835 418.76 C 740.172 420.1 739.57 419.784 741.527 421.79 L 741.422 424.064 C 738.67 427.194 736.271 427.686 732.263 429.312 C 729.738 428.638 730.664 428.944 728.47 427.102 L 728.516 425.246 C 731.171 421.84 734.005 420.792 737.835 418.76 z"/>
<path transform="translate(0,0)" fill="rgb(254,254,254)" d="M 1706.86 700.277 C 1711.43 699.433 1714.48 698.969 1718.73 700.602 C 1721.77 703.898 1720.84 702.489 1721.83 707.245 C 1714.68 707.992 1710.69 706.088 1706.86 700.277 z"/>
<path transform="translate(0,0)" fill="rgb(254,254,254)" d="M 766.456 1741.44 C 774.279 1744.22 776.004 1750.87 777.307 1758.41 C 771.062 1755.78 767.815 1747.55 766.456 1741.44 z"/>
<path transform="translate(0,0)" fill="rgb(242,241,241)" d="M 611.084 930.161 C 614.804 930.024 617.712 929.452 620.906 931.157 C 622.614 934.459 622.035 933.595 621.551 938.005 C 616.889 936.774 613.197 936.536 610.456 933.009 L 611.084 930.161 z"/>
<path transform="translate(0,0)" fill="rgb(0,0,0)" fill-opacity="0.0156863" d="M 614.218 949.125 C 617.334 949.86 616.032 949.147 618.335 951.221 C 619.514 955.027 618.208 959.2 617.438 963.236 C 610.672 959.066 611.863 955.947 614.218 949.125 z"/>
<path transform="translate(0,0)" fill="rgb(242,241,241)" d="M 755.205 428.593 C 757.839 428.653 757.029 428.427 759.253 429.502 L 759.638 431.258 C 757.602 435.179 756.94 435.357 753.228 438.058 C 750.387 437.641 751.536 438.323 749.52 436.397 C 749.998 433.01 752.64 431.16 755.205 428.593 z"/>
<path transform="translate(0,0)" fill="rgb(0,0,0)" fill-opacity="0.968627" d="M 1281.03 244.256 C 1286.87 246.905 1291.85 249.207 1297.91 251.336 L 1298.63 255.755 C 1291.91 251.982 1285.82 249.153 1278.74 246.165 L 1281.03 244.256 z"/>
<path transform="translate(0,0)" fill="rgb(0,0,0)" fill-opacity="0.976471" d="M 1494.16 337.876 C 1503.61 340.233 1526.05 351.656 1527.32 361.783 C 1518.84 360.794 1497.69 345.859 1494.16 337.876 z"/>
<path transform="translate(0,0)" fill="rgb(27,27,28)" fill-opacity="0.0235294" d="M 294.912 537.98 C 294.271 545.222 283.541 559.164 281.803 566.107 C 279.183 576.575 274.724 585.912 271.902 595.878 C 269.29 605.103 259.938 609.405 257.689 614.815 C 255.061 621.135 228.681 674.409 227.483 675.464 C 227.302 672.992 234.358 655.612 235.646 653.033 L 235.314 651.878 C 231.162 657.912 221.287 680.148 218.008 687.753 L 221.501 697.516 C 219.668 701.22 217.252 705.764 215.827 709.55 C 217.516 713.328 219.007 718.016 222.2 720.348 C 226.02 721.047 226.843 720.333 230.883 718.549 C 227.446 728.12 225.637 736.828 222.561 745.895 L 220.802 745.019 C 218.104 740.837 218.72 740.264 214.973 738.571 C 209.396 739.333 194.4 757.366 190.411 762.247 L 188.578 761.272 C 207.149 694.801 253.428 593.038 294.912 537.98 z"/>
<path transform="translate(0,0)" fill="rgb(0,0,0)" fill-opacity="0.960784" d="M 833.232 1829.53 L 833.698 1828.34 L 832.519 1826 L 834.104 1825.43 C 839.443 1827.38 834.499 1825.98 837.376 1829.05 C 853.587 1824.83 847.182 1832.73 856.719 1833.14 C 856.505 1832.25 856.291 1831.36 856.077 1830.47 L 858.04 1829.81 C 861.377 1831.01 863.426 1831.25 865.859 1833.52 L 864.664 1834.29 L 864.964 1835.12 L 867.305 1835.22 L 868.642 1833.42 C 872.417 1831.91 883.517 1836.96 889.541 1837.55 C 902.971 1838.86 916.111 1840.17 929.487 1841.94 L 927.532 1842.27 C 941.94 1843.48 955.011 1843.87 969.443 1844.28 C 974.484 1844.54 980.079 1847.58 985.138 1847.16 C 1018.95 1844.37 1052.8 1848.27 1086.5 1843.73 C 1091.72 1843.03 1101.41 1843.46 1106.88 1843.59 L 1107.52 1841.63 C 1111.76 1840.79 1119.8 1840.69 1125.24 1839.92 C 1152.32 1836.08 1176.31 1832.27 1203.1 1826.33 C 1221.46 1822.29 1239.65 1817.56 1257.65 1812.14 C 1264.29 1810.21 1291.25 1801.38 1296.22 1802.69 C 1272.07 1812.84 1241.63 1820.74 1216.04 1826.7 C 1108.34 1852.26 996.72 1856.8 887.299 1840.08 C 876.272 1838.31 842.894 1833.01 833.232 1829.53 z"/>
<path transform="translate(0,0)" fill="rgb(220,220,220)" fill-opacity="0.784314" d="M 1562.98 405.773 C 1586.15 403.369 1601.41 406.031 1624.02 407.676 C 1629.32 408.062 1633.35 407.203 1639.31 408.042 C 1641.19 409.285 1644.86 411.57 1646.39 412.932 L 1642.68 415.403 C 1639.72 423.234 1647.16 429.905 1646.34 437.775 C 1644.73 439.119 1645.66 438.687 1643.52 439.022 C 1642.39 433.896 1643.52 434.663 1640.4 432.296 C 1633.82 433.905 1633.82 432.339 1628.19 428.709 C 1622.1 424.786 1614.87 420.338 1608.64 416.676 C 1608.99 416.883 1600.5 417.556 1597.6 416.687 L 1597.96 416.77 C 1595.49 414.6 1592.08 415.808 1589.79 417.557 C 1584.51 421.595 1583.94 421.061 1577.57 420.907 L 1577.17 421.923 C 1580.45 427.478 1586.82 427.588 1588.55 433.575 C 1589.55 437.036 1591.5 437.986 1593.82 440.64 C 1574.19 441.49 1567.74 408.748 1562.98 405.773 z"/>
<path transform="translate(0,0)" fill="rgb(97,97,96)" fill-opacity="0.384314" d="M 761.522 1819.48 C 770.082 1822.84 784.308 1825.63 793.33 1823.23 C 795.436 1821.49 794.911 1822.13 796.477 1819.92 L 803.85 1822.18 C 796.699 1830.67 813.272 1841.35 797.773 1851.66 C 789.968 1849.04 783.837 1850.18 778.303 1845.25 C 771.215 1835.63 772.533 1829.93 758.636 1830.92 L 760.192 1829.68 C 760.3 1825.04 760.373 1823.95 761.522 1819.48 z"/>
<path transform="translate(0,0)" fill="rgb(97,97,96)" fill-opacity="0.298039" d="M 693.478 1796.43 C 713.319 1803.97 733.503 1810.57 753.962 1816.23 L 752.277 1817.3 C 748.373 1819.77 739.052 1823.02 743.86 1831.26 L 735.207 1829.43 C 736.403 1826.2 736.261 1826.38 735.962 1822.9 C 731.618 1817.5 722.854 1823.18 720.019 1821.42 C 709.685 1815 714.069 1806.96 697.776 1813.9 C 692.475 1810.86 687.992 1808.04 682.869 1804.72 C 687.102 1800.55 688.153 1799.33 693.478 1796.43 z"/>
<path transform="translate(0,0)" fill="rgb(175,174,174)" fill-opacity="0.698039" d="M 188.578 761.272 L 190.411 762.247 C 194.4 757.366 209.396 739.333 214.973 738.571 C 218.72 740.264 218.104 740.837 220.802 745.019 L 222.561 745.895 C 221.472 754.015 217.678 762.673 215.913 771.063 L 214.339 770.034 C 211.994 768.475 211.274 767.665 209.297 765.679 C 204.646 766.064 202.247 767.928 198.082 769.575 C 198.595 769.372 192.192 768.415 190.902 768.406 C 188.539 771.986 188.24 774.298 183.729 774.282 C 185.275 769.226 186.121 766.045 188.578 761.272 z"/>
<path transform="translate(0,0)" fill="url(#Gradient1)" d="M 682.869 1804.72 C 675.739 1799.34 644.089 1789.34 642.577 1782.52 C 644.069 1782.21 643.872 1782.04 645.126 1782.39 C 670.348 1789.51 670.162 1781.72 693.478 1796.43 C 688.153 1799.33 687.102 1800.55 682.869 1804.72 z"/>
<path transform="translate(0,0)" fill="rgb(220,220,220)" fill-opacity="0.882353" d="M 183.729 774.282 C 188.24 774.298 188.539 771.986 190.902 768.406 C 192.192 768.415 198.595 769.372 198.082 769.575 C 202.247 767.928 204.646 766.064 209.297 765.679 C 211.274 767.665 211.994 768.475 214.339 770.034 L 215.913 771.063 L 215.214 772.415 L 201.73 772.491 C 195.003 783.465 195.967 782.57 196.435 796.094 C 195.806 793.276 195.149 788.099 193.514 786.36 L 191.537 794.346 C 190.914 788.287 191.485 779.825 183.907 778.783 L 182.383 779.465 L 183.729 774.282 z"/>
<path transform="translate(0,0)" fill="rgb(0,0,0)" fill-opacity="0.145098" d="M 1307.2 1803.93 C 1310.73 1801.26 1323.21 1801.43 1329.85 1800.36 C 1328.62 1805.43 1328.94 1806.25 1330.29 1811.34 C 1328.49 1813.85 1328.57 1813.84 1326.16 1815.73 L 1327.75 1816.62 L 1322.26 1818.28 C 1314.59 1816.09 1313.91 1811.45 1311.06 1805.02 C 1308.75 1804.96 1308.95 1805.07 1307.2 1803.93 z"/>
<path transform="translate(0,0)" fill="rgb(220,220,220)" fill-opacity="0.988235" d="M 778.303 1845.25 C 783.837 1850.18 789.968 1849.04 797.773 1851.66 C 801.861 1853.31 804.062 1853.66 806.559 1857.03 C 806.92 1858.7 807.193 1859.74 807.367 1861.45 C 802.039 1861.54 781.711 1855.47 775.523 1853.74 C 776.129 1850.51 777.15 1848.32 778.303 1845.25 z"/>
<path transform="translate(0,0)" fill="rgb(97,97,96)" fill-opacity="0.34902" d="M 697.776 1813.9 C 714.069 1806.96 709.685 1815 720.019 1821.42 C 722.854 1823.18 731.618 1817.5 735.962 1822.9 C 736.261 1826.38 736.403 1826.2 735.207 1829.43 C 717.697 1823.34 715.047 1824.02 697.776 1813.9 z"/>
<path transform="translate(0,0)" fill="rgb(80,79,80)" fill-opacity="0.0196078" d="M 753.962 1816.23 L 761.522 1819.48 C 760.373 1823.95 760.3 1825.04 760.192 1829.68 L 758.636 1830.92 L 743.86 1831.26 C 739.052 1823.02 748.373 1819.77 752.277 1817.3 L 753.962 1816.23 z"/>
<path transform="translate(0,0)" fill="rgb(0,0,0)" fill-opacity="0.27451" d="M 1358.22 1799.51 L 1361.52 1800.97 C 1358.71 1802.55 1350.6 1807.35 1348.05 1808.43 L 1347.64 1805.9 L 1344.52 1804.08 C 1350.6 1803.72 1352.8 1802.15 1358.22 1799.51 z"/>
<path transform="translate(0,0)" fill="rgb(27,27,28)" fill-opacity="0.156863" d="M 1378.82 1792.95 C 1372.71 1796.1 1367.86 1798.28 1361.52 1800.97 L 1358.22 1799.51 C 1365.24 1795.62 1370.98 1794.42 1378.82 1792.95 z"/>
<path transform="translate(0,0)" fill="rgb(0,0,0)" fill-opacity="0.94902" d="M 146.176 1974.3 C 158.185 1975.71 175.72 1991.07 188.152 1996.13 C 210.915 2005.39 234.35 2014.8 258.113 2021.28 C 286.917 2026.81 332.45 2026.54 362.994 2026.65 L 362.502 2026.5 C 394.988 2024.13 427.597 2027.36 460.125 2025.85 C 471.17 2025.33 486.551 2027.93 497.005 2026.68 L 495.497 2026.41 C 515.211 2025.04 539.558 2025.73 559.709 2025.8 L 655.183 2026.29 C 717.712 2027.08 782.959 2025.77 845.926 2025.95 L 911.847 2025.99 C 920.695 2026.04 935.272 2027.13 943.388 2026.54 C 963.459 2025.09 979.535 2025.78 999.454 2027.17 L 996.357 2026.07 C 1006.2 2025.1 1023.17 2025.87 1033.26 2026.03 C 1046.54 2026.13 1059.82 2026.12 1073.1 2026 C 1116.02 2026 1164.48 2024.6 1207 2026.54 L 1206.56 2026.4 C 1222.62 2025.41 1238.88 2025.63 1254.97 2025.85 C 1291.57 2026.34 1327.92 2025.25 1364.5 2026.75 L 1362 2026.47 C 1392.55 2025.07 1423.42 2026.36 1454 2025.96 C 1463.47 2025.83 1473.43 2027.62 1483 2027.05 C 1491.21 2026.77 1499.28 2026.17 1507.45 2026.11 L 1636.51 2025.73 L 1714.17 2025.71 C 1726.4 2025.75 1743.42 2026.45 1756.23 2025.8 C 1756.23 2025.8 1759.91 2023.32 1759.91 2023.32 C 1769.51 2022.94 1778.16 2021.23 1787.32 2019.18 C 1806.61 2014.85 1824.12 2008.28 1842.34 2001.09 C 1850.86 1997.72 1872.67 1983.34 1880.09 1983.6 C 1853.24 2003.58 1799.88 2021.55 1767.12 2026.05 C 1732.23 2030.83 1696.67 2029.92 1661.45 2029.89 L 1538.43 2029.99 L 1087.16 2029.93 L 556.634 2029.98 L 396.523 2030.02 C 347.937 2030.01 296.855 2032.42 249.4 2021.46 C 214.723 2013.46 174.684 1995.79 146.176 1974.3 z"/>
</svg>